<mxfile host="app.diagrams.net" modified="2023-07-11T07:57:25.946Z" agent="Mozilla/5.0 (Windows NT 10.0; Win64; x64) AppleWebKit/537.36 (KHTML, like Gecko) Chrome/114.0.0.0 Safari/537.36 Edg/114.0.1823.67" etag="3rTaqh0RrlGacE1DcJ3i" version="21.6.1" type="github">
  <diagram id="C5RBs43oDa-KdzZeNtuy" name="Page-1">
    <mxGraphModel dx="2250" dy="819" grid="1" gridSize="10" guides="1" tooltips="1" connect="1" arrows="1" fold="1" page="1" pageScale="1" pageWidth="827" pageHeight="1169" background="none" math="0" shadow="0">
      <root>
        <mxCell id="WIyWlLk6GJQsqaUBKTNV-0" />
        <mxCell id="WIyWlLk6GJQsqaUBKTNV-1" parent="WIyWlLk6GJQsqaUBKTNV-0" />
        <mxCell id="yIiE3rmxBO7fpBEMD4Fo-45" value="" style="edgeStyle=elbowEdgeStyle;elbow=horizontal;endArrow=classic;html=1;curved=0;rounded=0;endSize=8;startSize=8;entryX=-0.007;entryY=0.117;entryDx=0;entryDy=0;entryPerimeter=0;" edge="1" parent="WIyWlLk6GJQsqaUBKTNV-1" target="yIiE3rmxBO7fpBEMD4Fo-38">
          <mxGeometry width="50" height="50" relative="1" as="geometry">
            <mxPoint x="-440" y="693" as="sourcePoint" />
            <mxPoint x="-353" y="710" as="targetPoint" />
            <Array as="points">
              <mxPoint x="-420" y="730" />
            </Array>
          </mxGeometry>
        </mxCell>
        <mxCell id="yIiE3rmxBO7fpBEMD4Fo-40" value="" style="edgeStyle=elbowEdgeStyle;elbow=horizontal;endArrow=classic;html=1;curved=0;rounded=0;endSize=8;startSize=8;exitX=1.005;exitY=0.248;exitDx=0;exitDy=0;exitPerimeter=0;entryX=-0.013;entryY=0.037;entryDx=0;entryDy=0;entryPerimeter=0;" edge="1" parent="WIyWlLk6GJQsqaUBKTNV-1" source="yIiE3rmxBO7fpBEMD4Fo-8" target="yIiE3rmxBO7fpBEMD4Fo-34">
          <mxGeometry width="50" height="50" relative="1" as="geometry">
            <mxPoint x="169" y="709" as="sourcePoint" />
            <mxPoint x="-148" y="397" as="targetPoint" />
            <Array as="points">
              <mxPoint x="-100" y="490" />
            </Array>
          </mxGeometry>
        </mxCell>
        <mxCell id="zkfFHV4jXpPFQw0GAbJ--0" value="dim_Exchange" style="swimlane;fontStyle=2;align=center;verticalAlign=top;childLayout=stackLayout;horizontal=1;startSize=26;horizontalStack=0;resizeParent=1;resizeLast=0;collapsible=1;marginBottom=0;rounded=0;shadow=0;strokeWidth=1;" parent="WIyWlLk6GJQsqaUBKTNV-1" vertex="1">
          <mxGeometry x="-600" y="448" width="160" height="180" as="geometry">
            <mxRectangle x="230" y="140" width="160" height="26" as="alternateBounds" />
          </mxGeometry>
        </mxCell>
        <mxCell id="zkfFHV4jXpPFQw0GAbJ--3" value="fromAddress&#xa;&#xa;toAddress&#xa;&#xa;exchangeAddress&#xa;&#xa;loans&#xa;&#xa;exchangeEntriesSettled" style="text;align=left;verticalAlign=top;spacingLeft=4;spacingRight=4;overflow=hidden;rotatable=0;points=[[0,0.5],[1,0.5]];portConstraint=eastwest;rounded=0;shadow=0;html=0;fillColor=#f5f5f5;fontColor=#333333;strokeColor=#666666;" parent="zkfFHV4jXpPFQw0GAbJ--0" vertex="1">
          <mxGeometry y="26" width="160" height="154" as="geometry" />
        </mxCell>
        <mxCell id="yIiE3rmxBO7fpBEMD4Fo-0" value="dim_Depot" style="swimlane;fontStyle=2;align=center;verticalAlign=top;childLayout=stackLayout;horizontal=1;startSize=26;horizontalStack=0;resizeParent=1;resizeLast=0;collapsible=1;marginBottom=0;rounded=0;shadow=0;strokeWidth=1;" vertex="1" parent="WIyWlLk6GJQsqaUBKTNV-1">
          <mxGeometry x="-600" y="220" width="160" height="180" as="geometry">
            <mxRectangle x="230" y="140" width="160" height="26" as="alternateBounds" />
          </mxGeometry>
        </mxCell>
        <mxCell id="yIiE3rmxBO7fpBEMD4Fo-1" value="user&#xa;&#xa;userActions&#xa;&#xa;clearedDepositsFrom&#xa;&#xa;clearedDepositsTo&#xa;&#xa;exchanges" style="text;align=left;verticalAlign=top;spacingLeft=4;spacingRight=4;overflow=hidden;rotatable=0;points=[[0,0.5],[1,0.5]];portConstraint=eastwest;fillColor=#f5f5f5;fontColor=#333333;strokeColor=#666666;" vertex="1" parent="yIiE3rmxBO7fpBEMD4Fo-0">
          <mxGeometry y="26" width="160" height="154" as="geometry" />
        </mxCell>
        <mxCell id="yIiE3rmxBO7fpBEMD4Fo-7" value="dim_Rate" style="swimlane;fontStyle=2;align=center;verticalAlign=top;childLayout=stackLayout;horizontal=1;startSize=26;horizontalStack=0;resizeParent=1;resizeLast=0;collapsible=1;marginBottom=0;rounded=0;shadow=0;strokeWidth=1;" vertex="1" parent="WIyWlLk6GJQsqaUBKTNV-1">
          <mxGeometry x="-600" y="678" width="160" height="90" as="geometry">
            <mxRectangle x="230" y="140" width="160" height="26" as="alternateBounds" />
          </mxGeometry>
        </mxCell>
        <mxCell id="yIiE3rmxBO7fpBEMD4Fo-8" value="synth&#xa;&#xa;rateUpdates" style="text;align=left;verticalAlign=top;spacingLeft=4;spacingRight=4;overflow=hidden;rotatable=0;points=[[0,0.5],[1,0.5]];portConstraint=eastwest;fillColor=#f5f5f5;fontColor=#333333;strokeColor=#666666;" vertex="1" parent="yIiE3rmxBO7fpBEMD4Fo-7">
          <mxGeometry y="26" width="160" height="64" as="geometry" />
        </mxCell>
        <mxCell id="yIiE3rmxBO7fpBEMD4Fo-11" value="dim_SNX" style="swimlane;fontStyle=2;align=center;verticalAlign=top;childLayout=stackLayout;horizontal=1;startSize=26;horizontalStack=0;resizeParent=1;resizeLast=0;collapsible=1;marginBottom=0;rounded=0;shadow=0;strokeWidth=1;" vertex="1" parent="WIyWlLk6GJQsqaUBKTNV-1">
          <mxGeometry x="160" y="220" width="160" height="290" as="geometry">
            <mxRectangle x="230" y="140" width="160" height="26" as="alternateBounds" />
          </mxGeometry>
        </mxCell>
        <mxCell id="yIiE3rmxBO7fpBEMD4Fo-12" value="holders &#xa;&#xa;issuers&#xa;&#xa;rewards&#xa;&#xa;total &#xa;&#xa;transfers&#xa;&#xa;issued&#xa;&#xa;burned&#xa;&#xa;feesClaimed&#xa;&#xa;debtSnapshot" style="text;align=left;verticalAlign=top;spacingLeft=4;spacingRight=4;overflow=hidden;rotatable=0;points=[[0,0.5],[1,0.5]];portConstraint=eastwest;fillColor=#f5f5f5;fontColor=#333333;strokeColor=#666666;" vertex="1" parent="yIiE3rmxBO7fpBEMD4Fo-11">
          <mxGeometry y="26" width="160" height="264" as="geometry" />
        </mxCell>
        <mxCell id="yIiE3rmxBO7fpBEMD4Fo-13" value="dim_Binary" style="swimlane;fontStyle=2;align=center;verticalAlign=top;childLayout=stackLayout;horizontal=1;startSize=26;horizontalStack=0;resizeParent=1;resizeLast=0;collapsible=1;marginBottom=0;rounded=0;shadow=0;strokeWidth=1;" vertex="1" parent="WIyWlLk6GJQsqaUBKTNV-1">
          <mxGeometry x="160" y="539.5" width="160" height="90" as="geometry">
            <mxRectangle x="230" y="140" width="160" height="26" as="alternateBounds" />
          </mxGeometry>
        </mxCell>
        <mxCell id="yIiE3rmxBO7fpBEMD4Fo-14" value="markets&#xa;&#xa;optionTransactions" style="text;align=left;verticalAlign=top;spacingLeft=4;spacingRight=4;overflow=hidden;rotatable=0;points=[[0,0.5],[1,0.5]];portConstraint=eastwest;fillColor=#f5f5f5;fontColor=#333333;strokeColor=#666666;" vertex="1" parent="yIiE3rmxBO7fpBEMD4Fo-13">
          <mxGeometry y="26" width="160" height="64" as="geometry" />
        </mxCell>
        <mxCell id="yIiE3rmxBO7fpBEMD4Fo-20" value="dim_Time" style="swimlane;fontStyle=2;align=center;verticalAlign=top;childLayout=stackLayout;horizontal=1;startSize=26;horizontalStack=0;resizeParent=1;resizeLast=0;collapsible=1;marginBottom=0;rounded=0;shadow=0;strokeWidth=1;" vertex="1" parent="WIyWlLk6GJQsqaUBKTNV-1">
          <mxGeometry x="160" y="660" width="160" height="90" as="geometry">
            <mxRectangle x="230" y="140" width="160" height="26" as="alternateBounds" />
          </mxGeometry>
        </mxCell>
        <mxCell id="yIiE3rmxBO7fpBEMD4Fo-21" value="timestamp" style="text;align=left;verticalAlign=top;spacingLeft=4;spacingRight=4;overflow=hidden;rotatable=0;points=[[0,0.5],[1,0.5]];portConstraint=eastwest;fillColor=#f5f5f5;fontColor=#333333;strokeColor=#666666;" vertex="1" parent="yIiE3rmxBO7fpBEMD4Fo-20">
          <mxGeometry y="26" width="160" height="64" as="geometry" />
        </mxCell>
        <mxCell id="yIiE3rmxBO7fpBEMD4Fo-22" value="Fact_User" style="swimlane;fontStyle=2;align=center;verticalAlign=top;childLayout=stackLayout;horizontal=1;startSize=26;horizontalStack=0;resizeParent=1;resizeLast=0;collapsible=1;marginBottom=0;rounded=0;shadow=0;strokeWidth=1;" vertex="1" parent="WIyWlLk6GJQsqaUBKTNV-1">
          <mxGeometry x="-360" y="220" width="200" height="230" as="geometry">
            <mxRectangle x="230" y="140" width="160" height="26" as="alternateBounds" />
          </mxGeometry>
        </mxCell>
        <mxCell id="yIiE3rmxBO7fpBEMD4Fo-23" value="user&#xa;&#xa;depositAmount&#xa;&#xa;withdrawAmount&#xa;&#xa;unacceptedAmount&#xa;&#xa;removedAmount&#xa;&#xa;timestamp&#xa;&#xa;depot" style="text;align=left;verticalAlign=top;spacingLeft=4;spacingRight=4;overflow=hidden;rotatable=0;points=[[0,0.5],[1,0.5]];portConstraint=eastwest;fillColor=#f5f5f5;fontColor=#333333;strokeColor=#666666;" vertex="1" parent="yIiE3rmxBO7fpBEMD4Fo-22">
          <mxGeometry y="26" width="200" height="204" as="geometry" />
        </mxCell>
        <mxCell id="yIiE3rmxBO7fpBEMD4Fo-26" value="" style="edgeStyle=elbowEdgeStyle;elbow=horizontal;endArrow=classic;html=1;curved=0;rounded=0;endSize=8;startSize=8;exitX=-0.007;exitY=0.21;exitDx=0;exitDy=0;exitPerimeter=0;entryX=1.008;entryY=0.693;entryDx=0;entryDy=0;entryPerimeter=0;" edge="1" parent="WIyWlLk6GJQsqaUBKTNV-1" source="yIiE3rmxBO7fpBEMD4Fo-21" target="yIiE3rmxBO7fpBEMD4Fo-23">
          <mxGeometry width="50" height="50" relative="1" as="geometry">
            <mxPoint x="-290" y="520" as="sourcePoint" />
            <mxPoint x="-240" y="470" as="targetPoint" />
            <Array as="points">
              <mxPoint x="-120" y="550" />
            </Array>
          </mxGeometry>
        </mxCell>
        <mxCell id="yIiE3rmxBO7fpBEMD4Fo-27" value="" style="edgeStyle=elbowEdgeStyle;elbow=horizontal;endArrow=classic;html=1;curved=0;rounded=0;endSize=8;startSize=8;entryX=0.002;entryY=0.06;entryDx=0;entryDy=0;entryPerimeter=0;exitX=1.017;exitY=0.08;exitDx=0;exitDy=0;exitPerimeter=0;" edge="1" parent="WIyWlLk6GJQsqaUBKTNV-1" source="yIiE3rmxBO7fpBEMD4Fo-1" target="yIiE3rmxBO7fpBEMD4Fo-23">
          <mxGeometry width="50" height="50" relative="1" as="geometry">
            <mxPoint x="-210" y="410" as="sourcePoint" />
            <mxPoint x="-160" y="360" as="targetPoint" />
          </mxGeometry>
        </mxCell>
        <mxCell id="yIiE3rmxBO7fpBEMD4Fo-28" value="Fact_Exchange" style="swimlane;fontStyle=2;align=center;verticalAlign=top;childLayout=stackLayout;horizontal=1;startSize=26;horizontalStack=0;resizeParent=1;resizeLast=0;collapsible=1;marginBottom=0;rounded=0;shadow=0;strokeWidth=1;" vertex="1" parent="WIyWlLk6GJQsqaUBKTNV-1">
          <mxGeometry x="-360" y="490" width="200" height="430" as="geometry">
            <mxRectangle x="230" y="140" width="160" height="26" as="alternateBounds" />
          </mxGeometry>
        </mxCell>
        <mxCell id="yIiE3rmxBO7fpBEMD4Fo-29" value="clearedDepositsFrom&#xa;&#xa;clearedDepositsTo&#xa;&#xa;amount&#xa;&#xa;timestamp&#xa;&#xa;depot&#xa;&#xa;fromAddress&#xa;&#xa;toAddress&#xa;&#xa;sUSDAmount&#xa;&#xa;ETHAmount&#xa;&#xa;exchangeEntriesSettled&#xa;&#xa;exchangerExchangeEntriesSettled&#xa;&#xa;totalVolume&#xa;&#xa;totalFees&#xa;&#xa;uniqueAddresses" style="text;align=left;verticalAlign=top;spacingLeft=4;spacingRight=4;overflow=hidden;rotatable=0;points=[[0,0.5],[1,0.5]];portConstraint=eastwest;fillColor=#f5f5f5;fontColor=#333333;strokeColor=#666666;" vertex="1" parent="yIiE3rmxBO7fpBEMD4Fo-28">
          <mxGeometry y="26" width="200" height="404" as="geometry" />
        </mxCell>
        <mxCell id="yIiE3rmxBO7fpBEMD4Fo-30" value="" style="edgeStyle=elbowEdgeStyle;elbow=horizontal;endArrow=classic;html=1;curved=0;rounded=0;endSize=8;startSize=8;entryX=-0.017;entryY=0.034;entryDx=0;entryDy=0;entryPerimeter=0;exitX=1.011;exitY=0.455;exitDx=0;exitDy=0;exitPerimeter=0;" edge="1" parent="WIyWlLk6GJQsqaUBKTNV-1" source="yIiE3rmxBO7fpBEMD4Fo-1" target="yIiE3rmxBO7fpBEMD4Fo-29">
          <mxGeometry width="50" height="50" relative="1" as="geometry">
            <mxPoint x="-430" y="330" as="sourcePoint" />
            <mxPoint x="-380" y="530" as="targetPoint" />
            <Array as="points">
              <mxPoint x="-380" y="420" />
            </Array>
          </mxGeometry>
        </mxCell>
        <mxCell id="yIiE3rmxBO7fpBEMD4Fo-31" value="" style="edgeStyle=elbowEdgeStyle;elbow=horizontal;endArrow=classic;html=1;curved=0;rounded=0;endSize=8;startSize=8;entryX=-0.009;entryY=0.103;entryDx=0;entryDy=0;entryPerimeter=0;exitX=1.014;exitY=0.622;exitDx=0;exitDy=0;exitPerimeter=0;" edge="1" parent="WIyWlLk6GJQsqaUBKTNV-1" source="yIiE3rmxBO7fpBEMD4Fo-1" target="yIiE3rmxBO7fpBEMD4Fo-29">
          <mxGeometry width="50" height="50" relative="1" as="geometry">
            <mxPoint x="-428" y="326" as="sourcePoint" />
            <mxPoint x="-363" y="529" as="targetPoint" />
            <Array as="points">
              <mxPoint x="-390" y="460" />
            </Array>
          </mxGeometry>
        </mxCell>
        <mxCell id="yIiE3rmxBO7fpBEMD4Fo-32" value="" style="edgeStyle=elbowEdgeStyle;elbow=horizontal;endArrow=classic;html=1;curved=0;rounded=0;endSize=8;startSize=8;entryX=1.006;entryY=0.299;entryDx=0;entryDy=0;entryPerimeter=0;exitX=0.002;exitY=0.208;exitDx=0;exitDy=0;exitPerimeter=0;" edge="1" parent="WIyWlLk6GJQsqaUBKTNV-1" source="yIiE3rmxBO7fpBEMD4Fo-21" target="yIiE3rmxBO7fpBEMD4Fo-29">
          <mxGeometry width="50" height="50" relative="1" as="geometry">
            <mxPoint x="100" y="840" as="sourcePoint" />
            <mxPoint x="-150" y="740" as="targetPoint" />
            <Array as="points">
              <mxPoint x="-140" y="680" />
            </Array>
          </mxGeometry>
        </mxCell>
        <mxCell id="yIiE3rmxBO7fpBEMD4Fo-33" value="Fact_SNX" style="swimlane;fontStyle=2;align=center;verticalAlign=top;childLayout=stackLayout;horizontal=1;startSize=26;horizontalStack=0;resizeParent=1;resizeLast=0;collapsible=1;marginBottom=0;rounded=0;shadow=0;strokeWidth=1;" vertex="1" parent="WIyWlLk6GJQsqaUBKTNV-1">
          <mxGeometry x="-80" y="220" width="160" height="460" as="geometry">
            <mxRectangle x="230" y="140" width="160" height="26" as="alternateBounds" />
          </mxGeometry>
        </mxCell>
        <mxCell id="yIiE3rmxBO7fpBEMD4Fo-34" value="synth&#xa;&#xa;timestamp&#xa;&#xa;wallet&#xa;&#xa;issuers&#xa;&#xa;transfers&#xa;&#xa;holders&#xa;&#xa;rewards&#xa;&#xa;total&#xa;&#xa;issued&#xa;&#xa;burned&#xa;&#xa;feesClaimed &#xa;&#xa;debtSnapshot&#xa;&#xa;price&#xa;&#xa;activeStakers&#xa;&#xa;account" style="text;align=left;verticalAlign=top;spacingLeft=4;spacingRight=4;overflow=hidden;rotatable=0;points=[[0,0.5],[1,0.5]];portConstraint=eastwest;fillColor=#f5f5f5;fontColor=#333333;strokeColor=#666666;" vertex="1" parent="yIiE3rmxBO7fpBEMD4Fo-33">
          <mxGeometry y="26" width="160" height="434" as="geometry" />
        </mxCell>
        <mxCell id="yIiE3rmxBO7fpBEMD4Fo-35" value="" style="edgeStyle=elbowEdgeStyle;elbow=horizontal;endArrow=classic;html=1;curved=0;rounded=0;endSize=8;startSize=8;entryX=-0.013;entryY=0.382;entryDx=0;entryDy=0;entryPerimeter=0;exitX=1;exitY=0.5;exitDx=0;exitDy=0;" edge="1" parent="WIyWlLk6GJQsqaUBKTNV-1" target="yIiE3rmxBO7fpBEMD4Fo-29">
          <mxGeometry width="50" height="50" relative="1" as="geometry">
            <mxPoint x="-440" y="479" as="sourcePoint" />
            <mxPoint x="-354" y="576" as="targetPoint" />
            <Array as="points">
              <mxPoint x="-400" y="530" />
            </Array>
          </mxGeometry>
        </mxCell>
        <mxCell id="yIiE3rmxBO7fpBEMD4Fo-36" value="" style="edgeStyle=elbowEdgeStyle;elbow=horizontal;endArrow=classic;html=1;curved=0;rounded=0;endSize=8;startSize=8;entryX=-0.013;entryY=0.455;entryDx=0;entryDy=0;entryPerimeter=0;exitX=1.008;exitY=0.279;exitDx=0;exitDy=0;exitPerimeter=0;" edge="1" parent="WIyWlLk6GJQsqaUBKTNV-1" source="zkfFHV4jXpPFQw0GAbJ--3" target="yIiE3rmxBO7fpBEMD4Fo-29">
          <mxGeometry width="50" height="50" relative="1" as="geometry">
            <mxPoint x="-440" y="479" as="sourcePoint" />
            <mxPoint x="-353" y="670" as="targetPoint" />
            <Array as="points">
              <mxPoint x="-410" y="530" />
            </Array>
          </mxGeometry>
        </mxCell>
        <mxCell id="yIiE3rmxBO7fpBEMD4Fo-37" value="Fact_SNX" style="swimlane;fontStyle=2;align=center;verticalAlign=top;childLayout=stackLayout;horizontal=1;startSize=26;horizontalStack=0;resizeParent=1;resizeLast=0;collapsible=1;marginBottom=0;rounded=0;shadow=0;strokeWidth=1;" vertex="1" parent="WIyWlLk6GJQsqaUBKTNV-1">
          <mxGeometry x="-80" y="720" width="160" height="130" as="geometry">
            <mxRectangle x="230" y="140" width="160" height="26" as="alternateBounds" />
          </mxGeometry>
        </mxCell>
        <mxCell id="yIiE3rmxBO7fpBEMD4Fo-38" value="Rate&#xa;&#xa;timestamp&#xa;&#xa;rateChange" style="text;align=left;verticalAlign=top;spacingLeft=4;spacingRight=4;overflow=hidden;rotatable=0;points=[[0,0.5],[1,0.5]];portConstraint=eastwest;fillColor=#f5f5f5;fontColor=#333333;strokeColor=#666666;" vertex="1" parent="yIiE3rmxBO7fpBEMD4Fo-37">
          <mxGeometry y="26" width="160" height="104" as="geometry" />
        </mxCell>
        <mxCell id="yIiE3rmxBO7fpBEMD4Fo-41" value="" style="edgeStyle=elbowEdgeStyle;elbow=horizontal;endArrow=classic;html=1;curved=0;rounded=0;endSize=8;startSize=8;exitX=-0.007;exitY=0.21;exitDx=0;exitDy=0;exitPerimeter=0;entryX=0.002;entryY=0.098;entryDx=0;entryDy=0;entryPerimeter=0;" edge="1" parent="WIyWlLk6GJQsqaUBKTNV-1">
          <mxGeometry width="50" height="50" relative="1" as="geometry">
            <mxPoint x="159" y="699" as="sourcePoint" />
            <mxPoint x="-80.67999999999984" y="288.5319999999999" as="targetPoint" />
            <Array as="points">
              <mxPoint x="-120" y="550" />
            </Array>
          </mxGeometry>
        </mxCell>
        <mxCell id="yIiE3rmxBO7fpBEMD4Fo-42" value="" style="edgeStyle=elbowEdgeStyle;elbow=horizontal;endArrow=classic;html=1;curved=0;rounded=0;endSize=8;startSize=8;exitX=-0.019;exitY=0.056;exitDx=0;exitDy=0;exitPerimeter=0;entryX=0.1;entryY=0.5;entryDx=0;entryDy=0;entryPerimeter=0;" edge="1" parent="WIyWlLk6GJQsqaUBKTNV-1" source="yIiE3rmxBO7fpBEMD4Fo-11" target="yIiE3rmxBO7fpBEMD4Fo-44">
          <mxGeometry width="50" height="50" relative="1" as="geometry">
            <mxPoint x="179" y="719" as="sourcePoint" />
            <mxPoint x="110" y="370" as="targetPoint" />
            <Array as="points">
              <mxPoint x="120" y="370" />
            </Array>
          </mxGeometry>
        </mxCell>
        <mxCell id="yIiE3rmxBO7fpBEMD4Fo-44" value="" style="shape=curlyBracket;whiteSpace=wrap;html=1;rounded=1;flipH=1;labelPosition=right;verticalLabelPosition=middle;align=left;verticalAlign=middle;" vertex="1" parent="WIyWlLk6GJQsqaUBKTNV-1">
          <mxGeometry x="80" y="330" width="20" height="250" as="geometry" />
        </mxCell>
        <mxCell id="yIiE3rmxBO7fpBEMD4Fo-46" value="Fact_Binary" style="swimlane;fontStyle=2;align=center;verticalAlign=top;childLayout=stackLayout;horizontal=1;startSize=26;horizontalStack=0;resizeParent=1;resizeLast=0;collapsible=1;marginBottom=0;rounded=0;shadow=0;strokeWidth=1;" vertex="1" parent="WIyWlLk6GJQsqaUBKTNV-1">
          <mxGeometry x="-80" y="890" width="160" height="100" as="geometry">
            <mxRectangle x="230" y="140" width="160" height="26" as="alternateBounds" />
          </mxGeometry>
        </mxCell>
        <mxCell id="yIiE3rmxBO7fpBEMD4Fo-47" value="market&#xa;&#xa;optionTransaction" style="text;align=left;verticalAlign=top;spacingLeft=4;spacingRight=4;overflow=hidden;rotatable=0;points=[[0,0.5],[1,0.5]];portConstraint=eastwest;fillColor=#f5f5f5;fontColor=#333333;strokeColor=#666666;" vertex="1" parent="yIiE3rmxBO7fpBEMD4Fo-46">
          <mxGeometry y="26" width="160" height="74" as="geometry" />
        </mxCell>
        <mxCell id="yIiE3rmxBO7fpBEMD4Fo-48" value="" style="edgeStyle=elbowEdgeStyle;elbow=horizontal;endArrow=classic;html=1;curved=0;rounded=0;endSize=8;startSize=8;exitX=-0.007;exitY=0.21;exitDx=0;exitDy=0;exitPerimeter=0;entryX=-0.013;entryY=0.407;entryDx=0;entryDy=0;entryPerimeter=0;" edge="1" parent="WIyWlLk6GJQsqaUBKTNV-1" target="yIiE3rmxBO7fpBEMD4Fo-38">
          <mxGeometry width="50" height="50" relative="1" as="geometry">
            <mxPoint x="159" y="699" as="sourcePoint" />
            <mxPoint x="-80.67999999999984" y="288.5319999999999" as="targetPoint" />
            <Array as="points">
              <mxPoint x="-120" y="550" />
            </Array>
          </mxGeometry>
        </mxCell>
        <mxCell id="yIiE3rmxBO7fpBEMD4Fo-49" value="" style="edgeStyle=elbowEdgeStyle;elbow=horizontal;endArrow=classic;html=1;curved=0;rounded=0;endSize=8;startSize=8;exitX=-0.017;exitY=0.176;exitDx=0;exitDy=0;exitPerimeter=0;entryX=1.008;entryY=0.281;entryDx=0;entryDy=0;entryPerimeter=0;" edge="1" parent="WIyWlLk6GJQsqaUBKTNV-1" source="yIiE3rmxBO7fpBEMD4Fo-13" target="yIiE3rmxBO7fpBEMD4Fo-47">
          <mxGeometry width="50" height="50" relative="1" as="geometry">
            <mxPoint x="179" y="719" as="sourcePoint" />
            <mxPoint x="-60.679999999999836" y="308.5319999999999" as="targetPoint" />
            <Array as="points">
              <mxPoint x="120" y="760" />
            </Array>
          </mxGeometry>
        </mxCell>
      </root>
    </mxGraphModel>
  </diagram>
</mxfile>
